<svg id="Laag_1" data-name="Laag 1" xmlns="http://www.w3.org/2000/svg" viewBox="0 0 35.87 46"><defs><style>.cls-1{fill:#fff;}</style></defs><title>downloaden</title><path class="cls-1" d="M-176.93,308.39c.75-.7,1.19-1.09,1.61-1.5L-163.46,295c.76-.76,1.58-1.47,2.56-.44s.24,1.72-.48,2.44q-7.78,7.77-15.53,15.55c-1.05,1.06-1.91,1.11-3,0q-7.79-7.86-15.65-15.67c-.74-.75-1.22-1.56-.28-2.44s1.62-.3,2.31.39l13.65,13.66V276.43c0-.5-.14-1.12.1-1.48a2.34,2.34,0,0,1,1.44-1.06c.4,0,1,.57,1.27,1a3.88,3.88,0,0,1,.12,1.65v31.82Z" transform="translate(196.34 -273.89)"/><path class="cls-1" d="M-178.21,319.88H-193c-.39,0-.78,0-1.17,0-1.11-.05-1.84-.57-1.85-1.73s.72-1.72,1.82-1.73c2.58,0,5.15,0,7.72,0h23.66c1.28,0,2.33.37,2.28,1.81s-1,1.71-2.25,1.69c-2,0-3.92,0-5.88,0Z" transform="translate(196.34 -273.89)"/></svg>